<svg width="48" height="48" viewBox="0 0 48 48" fill="none" xmlns="http://www.w3.org/2000/svg">
<path d="M36.5484 14.403C39.1538 17.0748 40.5882 20.5714 40.5882 24.2484C40.5882 32.1614 33.9387 38.5984 25.7646 38.5984C21.9648 38.5984 18.3514 37.2085 15.5893 34.6843L14.6201 35.6778C17.4726 38.2847 21.158 39.7703 25.0587 39.9329V42.6334H19.4117V44.0001H32.1176V42.6334H26.4705V39.9473C35.0964 39.5878 41.9999 32.6848 41.9999 24.2478C41.9999 20.2209 40.4286 16.3915 37.5754 13.4641L36.5484 14.403Z" fill="#3870C1"/>
<path d="M6.5689 30.9422L6.00348 36.415C5.98372 36.607 6.04866 36.7984 6.18278 36.9419C6.31619 37.0847 6.50607 37.1667 6.70584 37.1667H10.9411C11.1409 37.1667 11.3308 37.0847 11.4642 36.9419C11.5983 36.799 11.6633 36.6077 11.6435 36.415L11.0781 30.9415C10.9863 30.0539 10.3609 29.346 9.52937 29.0829V27.4832C9.55337 27.475 9.57455 27.4627 9.59784 27.4538C9.63737 27.4388 9.67478 27.4217 9.7122 27.4046C9.79126 27.3691 9.86678 27.3295 9.93949 27.285C9.97408 27.2639 10.0087 27.244 10.0418 27.2215C10.1258 27.1641 10.2042 27.1005 10.2783 27.0322C10.2938 27.0179 10.3115 27.0062 10.3263 26.9912C10.4131 26.9065 10.4908 26.8142 10.5614 26.7158C10.5811 26.6885 10.5967 26.6591 10.615 26.6304C10.663 26.5559 10.7068 26.4794 10.7449 26.3988C10.7626 26.3612 10.7788 26.3236 10.7943 26.2846C10.8261 26.2047 10.8522 26.1227 10.8734 26.038C10.8826 26.0004 10.8938 25.9642 10.9016 25.9259C10.9256 25.8043 10.9411 25.6792 10.9411 25.5501C10.9411 25.4209 10.9256 25.2959 10.9016 25.1735C10.8946 25.1353 10.8833 25.0991 10.8734 25.0615C10.8522 24.9774 10.8261 24.8947 10.7943 24.8155C10.7788 24.7765 10.7633 24.7389 10.7449 24.7014C10.7068 24.6214 10.663 24.5449 10.615 24.4704C10.5967 24.4417 10.5811 24.4123 10.5614 24.385C10.4908 24.2866 10.4131 24.1943 10.3263 24.1096C10.3115 24.0946 10.2938 24.0829 10.2783 24.0686C10.2042 24.0003 10.1258 23.9367 10.0418 23.8793C10.0087 23.8568 9.97408 23.8369 9.93949 23.8158C9.86678 23.7713 9.79126 23.7317 9.7122 23.6962C9.67408 23.6791 9.63667 23.662 9.59714 23.6463C9.57455 23.6374 9.55337 23.6251 9.52937 23.6169V13.5412L10.7244 13.9601L13.4033 14.899L14.3979 17.307C13.0644 19.3686 12.3529 21.7343 12.3529 24.1834C12.3529 28.7378 14.7931 32.7448 18.4687 35.0627C18.4757 35.0675 18.48 35.0757 18.4877 35.0805C18.727 35.2308 18.9734 35.3723 19.224 35.5076C19.3708 35.5875 19.5212 35.6606 19.6715 35.7351C19.8275 35.8123 19.9856 35.8854 20.1459 35.9565C20.467 36.1007 20.7953 36.2312 21.1299 36.3508C21.204 36.3774 21.276 36.4075 21.3508 36.4328C21.3565 36.4348 21.3628 36.4341 21.3685 36.4355C22.747 36.9009 24.223 37.1667 25.7647 37.1667C28.2487 37.1667 30.5689 36.4977 32.5666 35.3538C32.5786 35.3477 32.5913 35.3456 32.6026 35.3388C32.6979 35.2841 32.7911 35.2233 32.8856 35.1659C33.1242 35.0203 33.3579 34.8686 33.5866 34.7087C33.6579 34.6589 33.7306 34.6124 33.8012 34.5611C33.8104 34.5543 33.8153 34.5441 33.8238 34.5365C34.1202 34.3199 34.4061 34.0931 34.6828 33.8539C34.6927 33.8464 34.7054 33.843 34.7146 33.8354C34.7527 33.8026 34.7845 33.7651 34.8219 33.7316C35.0979 33.4856 35.3626 33.23 35.6174 32.9628C35.6788 32.8986 35.7395 32.8344 35.7995 32.7694C36.0522 32.4934 36.2915 32.2064 36.5188 31.9098C36.564 31.851 36.6106 31.7936 36.6544 31.7349C36.8901 31.4171 37.1097 31.0891 37.3158 30.7509C37.3412 30.7092 37.3687 30.6696 37.3934 30.6279C37.6101 30.263 37.8085 29.8878 37.9885 29.5018C37.997 29.484 38.0068 29.4662 38.0153 29.4485C38.5673 28.2499 38.9414 26.9591 39.0939 25.6034C39.096 25.5842 39.101 25.5658 39.1031 25.5473C39.1497 25.0977 39.1765 24.644 39.1765 24.1834C39.1765 23.7973 39.149 23.4297 39.12 23.0907C39.1193 23.0853 39.1158 23.0805 39.1151 23.075C38.8285 19.8757 37.3158 16.8759 34.8544 14.6701L34.5699 12.7779L38.8207 10.4266C39.0551 10.2974 39.1927 10.0494 39.1751 9.78835C39.1574 9.528 38.9873 9.29977 38.7374 9.20069L23.208 3.05071C22.9941 2.96598 22.7506 2.98853 22.5565 3.11016L8.43878 11.9935C8.43596 11.9955 8.43384 11.9982 8.43031 12.0003C8.42608 12.003 8.42184 12.0044 8.41761 12.0071C8.37031 12.0392 8.32796 12.0768 8.29055 12.1185C8.28772 12.1212 8.28631 12.1253 8.28349 12.1281C8.24678 12.1704 8.21643 12.2162 8.19102 12.2654C8.18184 12.2832 8.1769 12.3016 8.16984 12.3201C8.15502 12.3563 8.1416 12.3932 8.13384 12.4315C8.1289 12.454 8.12749 12.4773 8.12537 12.5005C8.12396 12.5224 8.11761 12.5442 8.11761 12.5668V23.6258C7.29807 23.9087 6.70584 24.6604 6.70584 25.5501C6.70584 26.4398 7.29807 27.1914 8.11761 27.4743V29.0829C7.28607 29.346 6.66066 30.0539 6.5689 30.9422ZM10.1611 35.8H7.48584L7.9736 31.0782C8.01737 30.6539 8.38302 30.3334 8.82349 30.3334C9.26396 30.3334 9.62961 30.6539 9.67337 31.0782L10.1611 35.8ZM21.5146 10.8994C21.5202 10.8981 21.5252 10.8974 21.5308 10.896C21.8965 10.8038 22.2607 10.7252 22.6221 10.6616C22.9892 10.5974 23.3534 10.5475 23.7155 10.5134C24.4172 10.4464 25.0708 10.3986 25.6814 10.3671C25.7873 10.3617 25.884 10.3596 25.987 10.3548C26.1812 10.3466 26.3774 10.3371 26.5623 10.3316C26.6958 10.3282 26.8193 10.3275 26.9478 10.3254C27.0918 10.3227 27.2414 10.3193 27.3798 10.3186C27.54 10.3179 27.6889 10.3207 27.8414 10.3227C27.9374 10.3241 28.0391 10.3234 28.1322 10.3254C28.2889 10.3289 28.4351 10.3357 28.584 10.3412C28.6638 10.3446 28.7492 10.3459 28.8268 10.35C29.0118 10.3589 29.1861 10.3705 29.3583 10.3828C29.3915 10.3849 29.4282 10.3869 29.4607 10.389C29.6506 10.4033 29.8306 10.4204 30.0042 10.4382C30.0155 10.4396 30.0282 10.4402 30.0395 10.4416C31.4986 10.596 32.3873 10.8639 32.8722 11.0587C32.8765 11.06 32.8814 11.0621 32.8849 11.0634L33.3508 14.1617C33.324 14.1514 33.2915 14.1418 33.2647 14.1323C33.168 14.0967 33.0614 14.0626 32.9584 14.0277C32.8024 13.9751 32.6449 13.9232 32.4741 13.8719C32.3576 13.8371 32.2348 13.8043 32.1113 13.7708C31.932 13.7216 31.7471 13.6745 31.5522 13.6287C31.4181 13.5972 31.2805 13.5679 31.1393 13.5385C30.9325 13.4954 30.7186 13.4558 30.4962 13.4182C30.3466 13.3929 30.1962 13.3683 30.0395 13.3458C29.8016 13.3116 29.5518 13.2829 29.2969 13.2556C29.1346 13.2385 28.9758 13.2207 28.8063 13.2064C28.5282 13.1831 28.2353 13.1695 27.9388 13.1565C27.7722 13.149 27.612 13.1387 27.4398 13.1353C27.1016 13.1278 26.7445 13.1326 26.383 13.1401C26.2313 13.1428 26.088 13.1401 25.932 13.1462C25.4054 13.1661 24.8583 13.1995 24.2838 13.2542C23.7713 13.3034 23.2772 13.3731 22.7957 13.4565C22.6362 13.4838 22.4859 13.52 22.3299 13.5515C22.2649 13.5644 22.2007 13.5774 22.1365 13.5904C22.123 13.5925 22.1096 13.5897 22.0962 13.5925C22.0475 13.6027 21.9995 13.6171 21.9508 13.628C21.7652 13.6683 21.5788 13.7079 21.3981 13.753C21.2541 13.7886 21.1165 13.8282 20.9753 13.8665C20.9005 13.887 20.8256 13.9082 20.7508 13.93C20.5284 13.9936 20.3075 14.0578 20.0936 14.1275C19.9637 14.1699 19.836 14.2122 19.7089 14.256C19.6623 14.2717 19.6172 14.2901 19.5706 14.3065C19.3362 14.3899 19.1068 14.4753 18.8837 14.5641C18.7609 14.6127 18.6381 14.6605 18.5188 14.7111C18.4856 14.7247 18.4539 14.7404 18.4214 14.7548C18.1969 14.8511 17.9802 14.9489 17.7684 15.0486C17.6421 15.1081 17.515 15.1662 17.3936 15.227C17.3837 15.2318 17.3731 15.2359 17.3633 15.2406C17.3611 15.242 17.3597 15.2441 17.3576 15.2454C17.1451 15.352 16.944 15.4586 16.7449 15.5673C16.6313 15.6295 16.5141 15.6903 16.4047 15.7525C16.1915 15.8741 15.9931 15.995 15.7969 16.116C15.7157 16.1659 15.6296 16.2158 15.552 16.2656C15.5364 16.2759 15.5174 16.2861 15.5019 16.2964L14.6251 14.1753C14.7056 14.12 14.7854 14.0722 14.8659 14.0182C17.1353 12.4923 19.3623 11.4441 21.5146 10.8994ZM26.851 18.9265C27.6452 19.2914 28.344 18.6156 29.0174 17.9624C29.4734 17.5196 30.1602 16.8417 30.5365 16.9278C30.9522 17.0132 31.5219 17.9999 31.3948 18.8999C31.1936 20.3233 29.0591 21.3838 27.6734 21.7494C27.2725 21.8553 26.9506 21.8963 26.6386 21.9366C26.0873 22.0077 25.5169 22.0801 24.7108 22.4853C24.0099 22.8372 23.6301 23.1857 23.3534 23.4406C23.0866 23.6859 23.0082 23.7515 22.8021 23.7843C22.2303 23.8745 21.6656 23.4611 21.1179 23.0607C20.5108 22.6165 19.8219 22.1129 19.0701 22.4819C18.2774 22.87 18.2816 23.8199 18.2844 24.5831C18.2844 24.7116 18.2852 24.8729 18.2802 25.0164C17.9477 24.7642 17.4706 24.2278 17.2341 23.5547C16.7216 22.0938 17.5983 20.4818 17.8793 20.0226C18.1574 19.5682 18.4164 19.303 18.6444 19.0687C18.9868 18.7181 19.3404 18.3553 19.3877 17.6699C19.4343 16.9927 19.1562 16.4802 18.8336 16.075C18.8654 16.0613 18.8957 16.047 18.9275 16.0333C19.8614 15.6301 20.8285 15.3035 21.8181 15.0602C21.8315 15.0568 21.8456 15.0548 21.859 15.0514C21.8894 15.1217 21.919 15.1942 21.9494 15.268C22.2021 15.8837 22.5176 16.6497 23.4212 16.9121C24.288 17.1663 25.039 16.7515 25.5875 16.4495C25.7428 16.364 25.9638 16.2424 26.0929 16.2C26.1579 16.3866 26.1543 16.8362 26.1522 17.0904C26.1473 17.799 26.1402 18.6013 26.851 18.9265ZM20.4233 34.5707C20.28 34.5017 20.136 34.4347 19.9962 34.3609C20.1501 34.2434 20.3202 34.1245 20.4882 34.0076C21.3007 33.4398 22.3115 32.7332 22.2374 31.6269C22.1852 30.8425 21.6197 30.3826 21.2068 30.0471C21.0649 29.9316 20.8503 29.7566 20.8221 29.7047C20.8546 29.4601 21.8153 28.8075 22.8586 28.9325C23.328 28.9886 23.5701 29.184 24.031 29.5851C24.5125 30.004 25.111 30.5254 26.2193 30.9415C26.8927 31.1944 27.4129 31.2771 27.7574 31.3317C27.8068 31.3399 27.8605 31.3481 27.9106 31.357C27.7419 31.9078 26.5659 33.3106 24.8809 33.7446C24.5019 33.8423 24.1652 33.8689 23.839 33.8942C23.2009 33.9441 22.5409 33.996 21.8054 34.5488C21.6183 34.6896 21.4673 34.8317 21.3395 34.9718C21.1461 34.898 20.9576 34.8167 20.7699 34.7333C20.6534 34.6807 20.5383 34.6261 20.4233 34.5707ZM32.4219 33.8334C32.1904 33.4336 32.052 32.9471 32.1487 32.5344C32.2744 31.9945 32.4014 31.8681 32.8736 31.396C33.1645 31.1062 33.5626 30.7085 34.0814 30.0744C34.1689 29.9678 34.3214 29.8591 34.4838 29.743C35.0181 29.361 35.8257 28.7836 35.6407 27.3411C35.5045 26.2764 35.1049 25.8705 34.7845 25.5446C34.5515 25.3075 34.3835 25.1366 34.2699 24.5674C34.0941 23.6846 34.5148 22.5906 35.0209 21.9674C35.3231 21.5956 35.5906 21.4562 35.7282 21.4501C35.736 21.4501 35.7431 21.4501 35.7501 21.4501C36.1694 21.4501 36.9268 22.0343 37.7217 23.349C37.7428 23.6265 37.7647 23.9039 37.7647 24.1834C37.7647 26.6058 36.9699 28.9551 35.532 30.9074C35.5144 30.9313 35.4953 30.9538 35.4777 30.9771C35.2581 31.2702 35.0245 31.5545 34.7767 31.8285C34.7428 31.8661 34.7068 31.9023 34.6729 31.9392C34.4336 32.1961 34.1824 32.4442 33.9191 32.682C33.8936 32.7052 33.8675 32.7271 33.8421 32.7496C33.5358 32.8822 33.2774 33.0578 33.06 33.286C32.9887 33.3612 32.9238 33.4412 32.8609 33.53C32.8235 33.5566 32.7868 33.5847 32.7487 33.6113C32.64 33.6865 32.532 33.7616 32.4219 33.8334ZM37.1562 20.5775C36.6981 20.2542 36.1962 20.0581 35.6619 20.0855C35.0457 20.1142 34.4407 20.4736 33.912 21.1241C33.2068 21.9926 32.616 23.4741 32.8849 24.8264C33.0762 25.7892 33.4567 26.176 33.7631 26.4876C34.0115 26.7404 34.1619 26.8935 34.2409 27.5105C34.3242 28.1597 34.0977 28.3216 33.6459 28.6449C33.4271 28.8007 33.18 28.9776 32.9767 29.2264C32.5009 29.8072 32.1459 30.1612 31.8607 30.4461C31.3334 30.9723 30.9854 31.3201 30.7722 32.2337C30.5866 33.0271 30.8202 33.86 31.2092 34.5236C29.5729 35.3333 27.7256 35.8 25.7647 35.8C24.7906 35.8 23.8482 35.675 22.9412 35.4618C23.2376 35.3149 23.5313 35.2889 23.9534 35.2554C24.3226 35.2267 24.7419 35.1939 25.2438 35.0641C27.0254 34.6062 28.5233 33.2614 29.0816 32.1702C29.4325 31.4848 29.364 31.0065 29.2447 30.727C28.9962 30.1434 28.4358 30.0546 27.9861 29.9828C27.6649 29.9316 27.2654 29.868 26.7289 29.6664C25.8621 29.3412 25.411 28.9483 24.9748 28.569C24.4765 28.1351 23.9619 27.6868 23.0308 27.5754C21.5421 27.3978 19.5826 28.2677 19.4202 29.5373C19.3235 30.3006 19.8868 30.7591 20.2983 31.0932C20.6195 31.3543 20.8157 31.5265 20.8277 31.7151C20.8517 32.0677 20.2193 32.5098 19.6609 32.9C19.3468 33.1193 19.0327 33.3469 18.7581 33.5956C15.7404 31.4834 13.7647 28.0565 13.7647 24.1834C13.7647 21.9045 14.4451 19.7021 15.7334 17.8072C15.8244 17.7437 15.924 17.6781 16.0207 17.6132C16.1449 17.5298 16.2656 17.4478 16.399 17.3631C16.5317 17.279 16.6786 17.1943 16.8204 17.1096C16.9588 17.0269 17.0922 16.9449 17.2383 16.8629C17.3322 16.8103 17.4367 16.759 17.5348 16.7064C17.8242 17.0221 17.9993 17.2688 17.9781 17.5804C17.9654 17.7615 17.9117 17.8291 17.6167 18.1318C17.3654 18.3894 17.0216 18.742 16.663 19.3276C16.2035 20.0786 15.2089 22.0371 15.8964 23.9955C16.26 25.0321 17.1113 26.0421 17.9223 26.3967C18.156 26.4992 18.3614 26.5354 18.5343 26.5354C18.7066 26.5354 18.847 26.4992 18.9536 26.4568C19.7019 26.1562 19.699 25.3184 19.6962 24.579C19.6955 24.3617 19.6941 23.9989 19.7322 23.7864C19.8875 23.8745 20.107 24.0351 20.2673 24.152C20.9421 24.6453 21.8675 25.3211 23.0343 25.1332C23.6753 25.03 24.0056 24.726 24.3261 24.4328C24.5661 24.2121 24.8379 23.9627 25.3616 23.6996C25.9489 23.4044 26.3167 23.3579 26.8249 23.2923C27.1659 23.2486 27.5527 23.1987 28.0461 23.0689C29.6612 22.6425 32.4791 21.3243 32.7953 19.0851C32.9908 17.6959 32.1755 15.8666 30.8301 15.5905C29.7071 15.3609 28.7711 16.2677 28.0193 16.9975C27.8866 17.1266 27.7179 17.29 27.5661 17.4239C27.564 17.3132 27.5654 17.1977 27.5661 17.102C27.5718 16.3524 27.5795 15.419 26.8016 14.9837C26.1035 14.5942 25.4026 14.9803 24.8901 15.2632C24.4228 15.5201 24.0981 15.6862 23.8277 15.6049C23.6026 15.5393 23.4819 15.3001 23.2645 14.7719C23.6435 14.7111 24.024 14.6523 24.4235 14.614C29.7515 14.1063 32.8278 15.3459 33.9035 15.9035C33.9621 15.9342 34.0214 15.9547 34.0842 15.9677C34.0962 15.9704 34.1082 15.9698 34.1202 15.9711C34.1612 15.9773 34.2014 15.9848 34.2473 15.9841C35.5864 17.2831 36.5725 18.863 37.1562 20.5775ZM23.016 4.45154L36.864 9.93527L34.368 11.3163L34.2254 10.4908C34.2134 10.4225 34.1767 10.3637 34.1449 10.3036C34.1287 10.2728 34.1245 10.2366 34.104 10.2086C34.0412 10.1232 33.9593 10.0514 33.8619 10.0009C31.9652 9.01892 28.2176 8.71074 23.5772 9.15422C20.287 9.46855 16.8444 10.8912 13.3454 13.3834C13.332 13.3929 13.32 13.4025 13.3073 13.4121L11.8863 12.9139L10.3976 12.3918L23.016 4.45154ZM8.82349 24.8667C9.21243 24.8667 9.52937 25.1735 9.52937 25.5501C9.52937 25.9266 9.21243 26.2334 8.82349 26.2334C8.43455 26.2334 8.11761 25.9266 8.11761 25.5501C8.11761 25.1735 8.43455 24.8667 8.82349 24.8667Z" fill="#3870C1"/>
</svg>
