<svg width="48" height="48" viewBox="0 0 48 48" fill="none" xmlns="http://www.w3.org/2000/svg">
<path d="M41.55 9.49827H39.9838V8.52729C39.9838 7.13379 38.8243 6 37.3989 6C35.9738 6 34.8143 7.13379 34.8143 8.52729V9.49827H31.051V8.52729C31.051 7.13379 29.8915 6 28.4664 6C27.0412 6 25.8817 7.13379 25.8817 8.52729V9.49827H22.1183V8.52729C22.1183 7.13379 20.9588 6 19.5336 6C18.1085 6 16.949 7.13379 16.949 8.52729V9.49827H13.1857V8.52729C13.1857 7.13379 12.0262 6 10.6009 6C9.17571 6 8.01621 7.13379 8.01621 8.52729V9.49827H6.45C6.20149 9.49827 6 9.69976 6 9.94827V41.55C6 41.7985 6.20149 42 6.45 42H41.55C41.7985 42 42 41.7985 42 41.55V9.94827C42 9.69976 41.7985 9.49827 41.55 9.49827ZM35.7143 8.52729C35.7143 7.62993 36.4701 6.9 37.3991 6.9C38.3281 6.9 39.0838 7.62993 39.0838 8.52729V9.49827H35.7143V8.52729ZM26.7817 8.52729C26.7817 7.62993 27.5374 6.9 28.4664 6.9C29.3954 6.9 30.151 7.62993 30.151 8.52729V9.49827H26.7817V8.52729ZM17.849 8.52729C17.849 7.62993 18.6046 6.9 19.5336 6.9C20.4626 6.9 21.2183 7.62993 21.2183 8.52729V9.49827H17.849V8.52729ZM8.91621 8.52729C8.91621 7.62993 9.67207 6.9 10.6011 6.9C11.5301 6.9 12.2857 7.62993 12.2857 8.52729V9.49827H8.91621V8.52729ZM12.2857 10.3983V10.7503C12.2857 11.6476 11.5301 12.3776 10.6011 12.3776C10.3526 12.3776 10.1511 12.5791 10.1511 12.8276C10.1511 13.0761 10.3526 13.2776 10.6011 13.2776C12.0262 13.2776 13.1857 12.1438 13.1857 10.7503V10.3983H21.2183V10.7503C21.2183 11.6476 20.4626 12.3776 19.5336 12.3776C19.2851 12.3776 19.0836 12.5791 19.0836 12.8276C19.0836 13.0761 19.2851 13.2776 19.5336 13.2776C20.9588 13.2776 22.1183 12.1438 22.1183 10.7503V10.3983H30.151V10.7503C30.151 11.6476 29.3954 12.3776 28.4664 12.3776C28.2179 12.3776 28.0164 12.5791 28.0164 12.8276C28.0164 13.0761 28.2179 13.2776 28.4664 13.2776C29.8915 13.2776 31.051 12.1438 31.051 10.7503V10.3983H39.0838V10.7503C39.0838 11.6476 38.3281 12.3776 37.3991 12.3776C37.1506 12.3776 36.9491 12.5791 36.9491 12.8276C36.9491 13.0761 37.1506 13.2776 37.3991 13.2776C38.8243 13.2776 39.9838 12.1438 39.9838 10.7503V10.3983H41.1V15.2918H6.9V10.3983H12.2857ZM6.9 41.1V16.1918H41.1V41.1H6.9Z" fill="#3870C1"/>
<path d="M33.9407 26.4661V19.4749C33.9407 19.2126 33.7336 19 33.4783 19H14.5217C14.2664 19 14.0593 19.2126 14.0593 19.4749V26.4661C12.8917 26.6777 12 27.7211 12 28.9801V36.5251C12 36.7874 12.207 37 12.4624 37C12.7178 37 12.9248 36.7874 12.9248 36.5251V33.3082H35.0752V36.5251C35.0752 36.7874 35.2822 37 35.5376 37C35.793 37 36 36.7874 36 36.5251V28.9801C36 27.7211 35.1083 26.6777 33.9407 26.4661ZM33.0159 19.9498V26.4212H30.9915V24.1583C30.9915 23.0726 30.1315 22.1893 29.0746 22.1893H25.4547C24.8699 22.1893 24.3519 22.4654 24 22.8908C23.6481 22.4654 23.1301 22.1893 22.5453 22.1893H18.9254C17.8685 22.1893 17.0085 23.0726 17.0085 24.1583V26.4212H14.9841V19.9498H33.0159ZM23.5376 26.4212H17.9333V24.1583C17.9333 23.5964 18.3783 23.1391 18.9254 23.1391H22.5453C23.0924 23.1391 23.5376 23.5964 23.5376 24.1583V26.4212ZM30.0667 26.4212H24.4624V24.1583C24.4624 23.5964 24.9076 23.1391 25.4547 23.1391H29.0746C29.6217 23.1391 30.0667 23.5964 30.0667 24.1583V26.4212ZM12.9248 32.3584V28.9801C12.9248 28.0929 13.6277 27.371 14.4917 27.371H33.5083C34.3723 27.371 35.0752 28.0929 35.0752 28.9801V32.3584H12.9248Z" fill="#3870C1"/>
</svg>
