<svg width="48" height="48" viewBox="0 0 48 48" fill="none" xmlns="http://www.w3.org/2000/svg">
<path d="M6.00033 40.2C6.00033 40.6774 6.18997 41.1352 6.52753 41.4728C6.86509 41.8104 7.32293 42 7.80031 42H40.2C40.6774 42 41.1352 41.8104 41.4728 41.4728C41.8104 41.1352 42 40.6774 42 40.2C42 37.0488 32.9449 35.4 24.0002 35.4C23.1788 35.4 22.3574 35.4144 21.5402 35.442C21.0121 33.541 20.2499 31.713 19.271 30H40.2C40.6774 30 41.1352 29.8104 41.4728 29.4728C41.8104 29.1352 42 28.6774 42 28.2V12.6C42 12.1226 41.8104 11.6648 41.4728 11.3272C41.1352 10.9896 40.6774 10.8 40.2 10.8H35.4001V9.6C35.3991 8.64551 35.0195 7.73039 34.3446 7.05547C33.6697 6.38054 32.7546 6.00095 31.8001 6L27.0001 6C26.0457 6.00095 25.1305 6.38054 24.4556 7.05547C23.7807 7.73039 23.4011 8.64551 23.4002 9.6V10.8H18.6002C18.1228 10.8 17.665 10.9896 17.3274 11.3272C16.9899 11.6648 16.8002 12.1226 16.8002 12.6V20.076C16.1459 19.9621 15.4755 19.9784 14.8274 20.124C14.8632 19.7416 15.035 19.3848 15.3116 19.1184C15.4435 18.9958 15.5375 18.8381 15.5825 18.6639C15.6276 18.4896 15.6219 18.3061 15.566 18.135C15.5112 17.9601 15.4074 17.8045 15.2669 17.6867C15.1265 17.5689 14.9552 17.4938 14.7734 17.4702C11.2335 16.9776 10.0773 19.1598 9.74609 20.1102C7.43012 20.64 6.07113 22.8294 6.00033 26.1942C5.99515 26.3916 6.05128 26.5857 6.16098 26.7499C6.27069 26.9141 6.42858 27.0402 6.61292 27.111C6.79562 27.1844 6.99663 27.199 7.18803 27.1529C7.37944 27.1068 7.55171 27.0022 7.68091 26.8536C7.97968 26.5089 8.31124 26.194 8.6709 25.9134C8.46087 27.083 8.4625 28.2808 8.6757 29.4498C8.70985 29.6583 8.81283 29.8495 8.96822 29.9927C9.12361 30.1359 9.32247 30.2229 9.5331 30.24C9.5631 30.24 9.5931 30.2442 9.6243 30.2442C9.82117 30.245 10.0135 30.1848 10.1747 30.0717C10.3358 29.9587 10.458 29.7984 10.5243 29.613C10.8618 28.6615 11.4964 27.8438 12.3345 27.2808C13.6684 30.0554 14.7418 32.9478 15.5408 35.9208C10.1181 36.6348 6.00033 38.0754 6.00033 40.2ZM40.8 40.2C40.8 40.3591 40.7368 40.5117 40.6243 40.6243C40.5118 40.7368 40.3591 40.8 40.2 40.8H7.80031C7.64118 40.8 7.48857 40.7368 7.37605 40.6243C7.26353 40.5117 7.20032 40.3591 7.20032 40.2C7.20032 38.6964 13.5915 36.6 24.0002 36.6C34.4089 36.6 40.8 38.6964 40.8 40.2ZM40.2 28.8H18.5276C18.3518 28.5396 18.1754 28.2936 18.0002 28.059V23.9952C18.1849 24.012 18.3686 24.0388 18.5504 24.0756C18.7104 24.1076 18.8758 24.0983 19.0312 24.0486C19.1865 23.9989 19.3266 23.9104 19.4383 23.7915C19.55 23.6726 19.6295 23.5273 19.6695 23.3691C19.7094 23.211 19.7083 23.0452 19.6664 22.8876C19.4243 21.9189 18.8304 21.0749 18.0002 20.52V19.6896C18.1924 19.7607 18.3954 19.798 18.6002 19.8H25.8001V20.4C25.8001 21.0365 26.053 21.647 26.5031 22.0971C26.9532 22.5471 27.5636 22.8 28.2001 22.8H30.6001C31.2366 22.8 31.8471 22.5471 32.2971 22.0971C32.7472 21.647 33.0001 21.0365 33.0001 20.4V19.8H40.2C40.4049 19.798 40.6079 19.7607 40.8 19.6896V28.2C40.8 28.3591 40.7368 28.5117 40.6243 28.6243C40.5118 28.7368 40.3591 28.8 40.2 28.8ZM16.8002 26.6178C16.2762 26.0461 15.7087 25.5157 15.1028 25.0314C15.5531 24.5381 16.1468 24.1983 16.8002 24.06V26.6178ZM27.0001 19.8H31.8001V20.4C31.8001 20.7183 31.6737 21.0235 31.4486 21.2485C31.2236 21.4736 30.9184 21.6 30.6001 21.6H28.2001C27.8819 21.6 27.5766 21.4736 27.3516 21.2485C27.1266 21.0235 27.0001 20.7183 27.0001 20.4V19.8ZM24.6002 9.6C24.6002 8.96348 24.853 8.35303 25.3031 7.90294C25.7532 7.45286 26.3636 7.2 27.0001 7.2H31.8001C32.4366 7.2 33.047 7.45286 33.4971 7.90294C33.9472 8.35303 34.2001 8.96348 34.2001 9.6V10.8H33.0001V9.6C33.0001 9.28174 32.8737 8.97652 32.6486 8.75147C32.4236 8.52643 32.1183 8.4 31.8001 8.4H27.0001C26.6819 8.4 26.3767 8.52643 26.1516 8.75147C25.9266 8.97652 25.8001 9.28174 25.8001 9.6V10.8H24.6002V9.6ZM31.8001 10.8H27.0001V9.6H31.8001V10.8ZM18.0002 12.6C18.0002 12.4409 18.0634 12.2883 18.176 12.1757C18.2885 12.0632 18.4411 12 18.6002 12H40.2C40.3591 12 40.5118 12.0632 40.6243 12.1757C40.7368 12.2883 40.8 12.4409 40.8 12.6V18C40.8 18.1591 40.7368 18.3117 40.6243 18.4243C40.5118 18.5368 40.3591 18.6 40.2 18.6H18.6002C18.4411 18.6 18.2885 18.5368 18.176 18.4243C18.0634 18.3117 18.0002 18.1591 18.0002 18V12.6ZM9.74909 28.4118C9.62457 27.2691 9.77092 26.1131 10.1763 25.0374C10.2134 24.9463 10.2275 24.8475 10.2174 24.7497C10.2073 24.6518 10.1733 24.558 10.1185 24.4764C10.0636 24.3948 9.98947 24.3279 9.90267 24.2817C9.81588 24.2354 9.71904 24.2112 9.6207 24.2112C9.4407 24.2112 8.54431 24.2832 7.23272 25.5816C7.37012 23.8704 7.99111 21.5556 10.3041 21.2262C10.4292 21.2075 10.5454 21.1501 10.6363 21.0621C10.7272 20.9741 10.7883 20.8599 10.8111 20.7354C10.8561 20.4876 11.3283 18.4152 14.1627 18.6126C13.9255 18.9536 13.7579 19.338 13.6695 19.7439C13.5812 20.1498 13.5738 20.5691 13.6479 20.9778C13.6591 21.0653 13.6895 21.1492 13.7368 21.2235C13.7841 21.2979 13.8473 21.361 13.9218 21.4082C13.9962 21.4554 14.0802 21.4856 14.1677 21.4967C14.2551 21.5077 14.344 21.4994 14.4279 21.4722C15.6158 21.093 16.5752 21.0954 17.2778 21.4782C17.7982 21.782 18.1928 22.2619 18.3902 22.8312C17.3758 22.6479 16.3292 22.8108 15.4185 23.2937C14.5078 23.7766 13.7857 24.5515 13.3683 25.494C12.5994 25.7112 11.8825 26.0816 11.2605 26.583C10.6385 27.0845 10.1244 27.7065 9.74909 28.4118ZM13.4091 26.7396C13.5733 26.6797 13.7418 26.632 13.9131 26.5968C14.0205 26.5789 14.1211 26.5321 14.2039 26.4614C14.2868 26.3907 14.3489 26.2987 14.3835 26.1954C14.3883 26.181 14.4081 26.124 14.4435 26.0388C15.9818 27.2772 18.7142 30.1188 20.3078 35.4954C19.0892 35.5584 17.8928 35.6514 16.7432 35.7762C15.9207 32.6648 14.8035 29.6389 13.4067 26.7396H13.4091Z" fill="#3870C1"/>
</svg>
