<svg width="48" height="48" viewBox="0 0 48 48" fill="none" xmlns="http://www.w3.org/2000/svg">
<path d="M24 12.038C17.6318 12.038 12.45 17.2853 12.45 23.7342C12.45 30.183 17.6318 35.4304 24 35.4304C30.3683 35.4304 35.55 30.183 35.55 23.7342C35.55 17.2853 30.3683 12.038 24 12.038ZM31.35 24.2658H33.4238C33.303 26.4722 32.4473 28.4765 31.0928 30.0342C30.4523 29.7099 29.7383 29.4334 28.9665 29.2048C29.2868 28.2106 29.523 27.1101 29.6543 25.9192C29.6858 25.6268 29.481 25.3663 29.1923 25.3291C28.9035 25.2972 28.6462 25.5046 28.6095 25.797C28.4835 26.94 28.2525 27.998 27.9428 28.939C27.3653 28.8114 26.7668 28.7051 26.1525 28.636C25.869 28.6041 25.6065 28.8114 25.5698 29.1038C25.533 29.3962 25.743 29.6567 26.0318 29.6939C26.5568 29.7524 27.0713 29.8375 27.5648 29.9438C26.793 31.7461 25.7115 32.9582 24.5145 33.2347V31.1772C24.5145 30.8848 24.2783 30.6456 23.9895 30.6456C23.7007 30.6456 23.4645 30.8848 23.4645 31.1772V33.24C22.2675 32.9582 21.1965 31.7301 20.43 29.9438C20.9235 29.8375 21.4275 29.7577 21.9473 29.6939C22.236 29.662 22.4408 29.3962 22.4093 29.1038C22.3778 28.8114 22.1153 28.6041 21.8265 28.636C21.2123 28.7051 20.619 28.8061 20.0468 28.9337C19.6005 27.5673 19.3223 25.9671 19.2698 24.2605H23.475V26.9187C23.475 27.2111 23.7113 27.4504 24 27.4504C24.2888 27.4504 24.525 27.2111 24.525 26.9187V24.2605H27.15C27.4388 24.2605 27.675 24.0213 27.675 23.7289C27.675 23.4365 27.4388 23.1972 27.15 23.1972H24.525V18.9281C25.7115 18.8962 26.8665 18.7527 27.948 18.5134C28.2578 19.4544 28.4888 20.5177 28.6148 21.6608C28.6463 21.9532 28.9088 22.1605 29.1975 22.1286C29.4863 22.0967 29.691 21.8309 29.6595 21.5385C29.5283 20.3476 29.2868 19.2418 28.9718 18.2476C29.7383 18.0243 30.4523 17.7478 31.098 17.4235C32.4525 18.9813 33.3083 20.9909 33.429 23.1919H31.35C31.0613 23.1919 30.825 23.4311 30.825 23.7235C30.825 24.016 31.0613 24.2658 31.35 24.2658ZM30.3158 30.8316C29.3813 31.6876 28.2788 32.3522 27.0608 32.7775C27.654 32.1023 28.179 31.2357 28.6043 30.2043C29.2133 30.3797 29.7908 30.5924 30.3158 30.8316ZM20.9288 32.7775C19.716 32.3522 18.6188 31.6876 17.6895 30.837C18.2145 30.5924 18.7868 30.3851 19.3958 30.2096C19.8158 31.2304 20.3355 32.097 20.9288 32.7775ZM27.0608 14.6909C28.2735 15.1109 29.3708 15.7808 30.3053 16.6314C29.7803 16.876 29.208 17.0886 28.599 17.2641C28.179 16.2327 27.654 15.3661 27.0608 14.6909ZM27.57 17.5192C26.6093 17.7213 25.5855 17.8435 24.525 17.8754V14.239C25.7168 14.5101 26.8035 15.717 27.57 17.5192ZM23.475 14.2284V17.8701C22.425 17.8382 21.4065 17.7213 20.4458 17.5192C21.207 15.7382 22.2833 14.5101 23.475 14.2284ZM19.3958 17.2587C18.7868 17.0833 18.2145 16.876 17.6895 16.6314C18.624 15.7808 19.7213 15.1162 20.9288 14.6909C20.3355 15.3714 19.8158 16.238 19.3958 17.2587ZM23.475 18.9334V23.2025H19.2908C19.338 21.4959 19.6162 19.8904 20.0677 18.5241C21.144 18.7633 22.2938 18.9015 23.475 18.9334ZM16.9073 17.4289C17.553 17.7532 18.267 18.0296 19.0335 18.2582C18.5663 19.7096 18.288 21.3896 18.2407 23.2025H14.5763C14.697 20.9962 15.5528 18.9919 16.9073 17.4289ZM14.5763 24.2658H18.2407C18.288 26.0787 18.5663 27.7534 19.0335 29.2048C18.267 29.4281 17.553 29.7046 16.9073 30.0342C15.5528 28.4711 14.697 26.4668 14.5763 24.2658ZM6.85875 8.84278C7.137 9.08734 7.263 9.46481 7.19475 9.83165C7.1265 10.1985 6.8745 10.5015 6.53325 10.6344L5.7825 10.9215C5.373 11.0757 5.1 11.4744 5.1 11.9157V12.038C5.1 12.6228 4.6275 13.1013 4.05 13.1013C3.4725 13.1013 3 12.6228 3 12.038V11.9157C3 10.7939 3.588 9.76253 4.512 9.18835C4.21275 8.59823 4.05 7.93367 4.05 7.25316C4.05 4.90861 5.93475 3 8.25 3C10.5653 3 12.45 4.90861 12.45 7.25316C12.45 7.93367 12.2873 8.59823 11.988 9.19367C12.912 9.76785 13.5 10.7992 13.5 11.921V12.038C13.5 12.6228 13.0275 13.1013 12.45 13.1013C11.8725 13.1013 11.4 12.6228 11.4 12.038V11.9157C11.4 11.4744 11.127 11.0757 10.7175 10.9215L9.96675 10.6344C9.62025 10.5015 9.36825 10.1985 9.30525 9.83165C9.237 9.46481 9.36825 9.08734 9.64125 8.84278C10.0928 8.43873 10.35 7.85924 10.35 7.25316C10.35 6.07823 9.41025 5.12658 8.25 5.12658C7.08975 5.12658 6.15 6.07823 6.15 7.25316C6.15 7.85924 6.40725 8.43873 6.85875 8.84278ZM45 43.8144V43.9367C45 44.5215 44.5275 45 43.95 45C43.3725 45 42.9 44.5215 42.9 43.9367V43.8144C42.9 43.3732 42.627 42.9744 42.2175 42.8203L41.4668 42.5332C41.1203 42.4003 40.8683 42.0972 40.8053 41.7304C40.737 41.3635 40.8683 40.9861 41.1413 40.7415C41.5928 40.3375 41.85 39.758 41.85 39.1519C41.85 37.977 40.9103 37.0253 39.75 37.0253C38.5898 37.0253 37.65 37.977 37.65 39.1519C37.65 39.758 37.9073 40.3375 38.3588 40.7415C38.637 40.9861 38.763 41.3635 38.6947 41.7304C38.6265 42.0972 38.3745 42.4003 38.0333 42.5332L37.2825 42.8203C36.873 42.9744 36.6 43.3732 36.6 43.8144V43.9367C36.6 44.5215 36.1275 45 35.55 45C34.9725 45 34.5 44.5215 34.5 43.9367V43.8144C34.5 42.6927 35.088 41.6613 36.012 41.0871C35.7127 40.497 35.55 39.8324 35.55 39.1519C35.55 36.8073 37.4348 34.8987 39.75 34.8987C42.0653 34.8987 43.95 36.8073 43.95 39.1519C43.95 39.8324 43.7873 40.497 43.488 41.0924C44.412 41.6613 45 42.6927 45 43.8144ZM29.775 23.7342C29.775 24.0266 29.5388 24.2658 29.25 24.2658C28.9613 24.2658 28.725 24.0266 28.725 23.7342C28.725 23.4418 28.9613 23.2025 29.25 23.2025C29.5388 23.2025 29.775 23.4418 29.775 23.7342ZM24.525 29.0506C24.525 29.343 24.2888 29.5823 24 29.5823C23.7113 29.5823 23.475 29.343 23.475 29.0506C23.475 28.7582 23.7113 28.519 24 28.519C24.2888 28.519 24.525 28.7582 24.525 29.0506ZM40.275 25.8608C40.275 26.1532 40.0388 26.3924 39.75 26.3924C39.4613 26.3924 39.225 26.1532 39.225 25.8608C39.225 25.5684 39.4613 25.3291 39.75 25.3291C40.0388 25.3291 40.275 25.5684 40.275 25.8608ZM22.5773 8.16228C22.3725 7.95494 22.3725 7.62 22.5773 7.41266L24.6773 5.28608C24.882 5.07873 25.2128 5.07873 25.4175 5.28608C25.6223 5.49342 25.6223 5.82835 25.4175 6.0357L24.21 7.25848C33.0878 7.37544 40.275 14.7175 40.275 23.7342C40.275 24.0266 40.0388 24.2658 39.75 24.2658C39.4613 24.2658 39.225 24.0266 39.225 23.7342C39.225 15.3076 32.5155 8.44405 24.2205 8.32177L25.4175 9.53392C25.6223 9.74127 25.6223 10.0762 25.4175 10.2835C25.3178 10.3899 25.1865 10.443 25.05 10.443C24.9135 10.443 24.7823 10.3899 24.6773 10.2889L22.5773 8.16228ZM8.25 21.0759C8.53875 21.0759 8.775 21.3152 8.775 21.6076C8.775 21.9 8.53875 22.1392 8.25 22.1392C7.96125 22.1392 7.725 21.9 7.725 21.6076C7.725 21.3152 7.96125 21.0759 8.25 21.0759ZM25.4227 39.3061C25.6275 39.5134 25.6275 39.8484 25.4227 40.0557L23.3228 42.1823C23.2178 42.2886 23.0865 42.3418 22.95 42.3418C22.8135 42.3418 22.6823 42.2886 22.5773 42.1876C22.3725 41.9803 22.3725 41.6453 22.5773 41.438L23.7848 40.2152C14.9123 40.0929 7.725 32.7509 7.725 23.7342C7.725 23.4418 7.96125 23.2025 8.25 23.2025C8.53875 23.2025 8.775 23.4418 8.775 23.7342C8.775 32.1608 15.4845 39.0243 23.7795 39.1466L22.5825 37.9344C22.3777 37.7271 22.3777 37.3922 22.5825 37.1848C22.7872 36.9775 23.118 36.9775 23.3228 37.1848L25.4227 39.3061Z" fill="#3870C1"/>
</svg>
