<svg width="48" height="48" viewBox="0 0 48 48" fill="none" xmlns="http://www.w3.org/2000/svg">
<path d="M32.25 40.5C32.25 40.699 32.1709 40.8897 32.0303 41.0304C31.8896 41.171 31.6989 41.25 31.5 41.25H4.49996C4.30105 41.25 4.11029 41.171 3.96963 41.0304C3.82898 40.8897 3.74996 40.699 3.74996 40.5C3.74996 40.3011 3.82898 40.1104 3.96963 39.9697C4.11029 39.8291 4.30105 39.75 4.49996 39.75H31.5C31.6989 39.75 31.8896 39.8291 32.0303 39.9697C32.1709 40.1104 32.25 40.3011 32.25 40.5ZM45.7368 17.3269C45.7173 17.4315 45.6758 17.5307 45.615 17.618C45.5543 17.7052 45.4756 17.7786 45.3843 17.8332L17.745 34.3332C16.7096 34.9391 15.5321 35.2593 14.3325 35.2613C12.62 35.2593 10.9732 34.6026 9.72934 33.4257L2.94934 26.7919C2.68075 26.5365 2.47944 26.2186 2.3633 25.8666C2.24716 25.5146 2.21978 25.1393 2.28361 24.7742C2.34743 24.409 2.50048 24.0653 2.72915 23.7736C2.95781 23.4818 3.25502 23.2511 3.59434 23.1019L4.16996 22.8207C4.34545 22.7355 4.54722 22.722 4.73246 22.7832L10.3575 24.6825L15.2812 21.7125L10.4831 17.0625C10.2052 16.8088 9.99539 16.4895 9.87284 16.1337C9.75029 15.778 9.71892 15.3972 9.7816 15.0261C9.84427 14.6551 9.99899 14.3057 10.2316 14.01C10.4642 13.7142 10.7673 13.4815 11.1131 13.3332L11.1431 13.3219L12.4837 12.8138C12.653 12.7505 12.8394 12.7505 13.0087 12.8138L23.4581 16.65L33.435 10.6875C34.8217 9.86273 36.459 9.56457 38.0475 9.84756C39.636 10.1306 41.0696 10.9758 42.0862 12.2288L45.5906 16.7288C45.6559 16.8125 45.7027 16.9091 45.7279 17.0122C45.7531 17.1153 45.7562 17.2226 45.7368 17.3269ZM43.8862 16.98L40.9143 13.17C40.1231 12.2005 39.01 11.5473 37.7776 11.3295C36.5453 11.1116 35.2756 11.3436 34.2 11.9832L23.9212 18.12C23.825 18.1776 23.7171 18.2129 23.6055 18.2233C23.4939 18.2337 23.3814 18.2189 23.2762 18.18L12.75 14.3082L11.6887 14.7094C11.5754 14.7613 11.4769 14.8405 11.4019 14.94C11.3269 15.0395 11.2779 15.1562 11.2593 15.2793C11.2407 15.4025 11.2531 15.5284 11.2953 15.6456C11.3375 15.7628 11.4083 15.8677 11.5012 15.9507C11.5076 15.958 11.5145 15.9649 11.5218 15.9713L17.025 21.3132C17.1071 21.3931 17.1699 21.4908 17.2084 21.5988C17.2469 21.7068 17.2601 21.8221 17.2471 21.936C17.234 22.0499 17.1951 22.1593 17.1332 22.2558C17.0713 22.3522 16.9881 22.4332 16.89 22.4925L10.8487 26.145C10.7554 26.2016 10.6508 26.2371 10.5423 26.2491C10.4338 26.2611 10.324 26.2493 10.2206 26.2144L4.55246 24.3019L4.23934 24.4557L4.20559 24.4725C4.09122 24.5217 3.99089 24.5985 3.91363 24.6961C3.83637 24.7937 3.78462 24.909 3.76304 25.0316C3.74146 25.1542 3.75074 25.2802 3.79002 25.3983C3.82931 25.5165 3.89738 25.6229 3.98809 25.7082L10.7662 32.3438C11.5878 33.1167 12.6378 33.6024 13.7588 33.7282C14.8798 33.8539 16.0113 33.6129 16.9837 33.0413L43.8862 16.98Z" fill="#3870C1"/>
</svg>
