<svg width="48" height="48" viewBox="0 0 48 48" fill="none" xmlns="http://www.w3.org/2000/svg">
<path fill-rule="evenodd" clip-rule="evenodd" d="M21.8243 9.69245H22.3002C23.3581 9.69245 24.3858 9.89882 25.2856 10.6447C26.1062 11.3256 26.7988 12.4485 27.2716 14.2668C27.3016 14.2571 27.3301 14.2473 27.3601 14.2376C28.9129 13.7289 30.3818 12.8921 31.7258 11.714C31.8697 11.5872 32.0816 11.5921 32.2208 11.7156C33.5632 12.8937 35.0322 13.7306 36.5832 14.2376C38.1724 14.7576 39.8548 14.9331 41.5877 14.7755C41.7964 14.7576 41.9799 14.9152 41.9988 15.1297C42.0004 15.1525 42.0004 15.1752 41.9988 15.198C41.9972 19.9724 41.7664 23.1965 40.4192 26.066C39.0688 28.9423 36.6227 31.4137 32.1921 34.6735C32.0546 34.7743 31.8727 34.7678 31.7431 34.6687C30.2725 33.5864 29.0218 32.5903 27.956 31.638V34.9953C27.956 35.8857 27.3725 36.6804 26.5693 37.2719C25.7201 37.8975 24.6054 38.3054 23.7025 38.3493V38.9652C23.7025 39.4787 23.4985 39.9451 23.1696 40.2831C22.9783 40.4797 22.7459 40.6324 22.485 40.7267V41.6952C22.485 42.0104 22.3601 42.2964 22.1577 42.5044C21.9569 42.7108 21.677 42.8408 21.3702 42.8408C21.0635 42.8408 20.7852 42.7124 20.5828 42.5044C20.382 42.298 20.2555 42.0104 20.2555 41.6952L20.2586 40.79C19.9107 40.7137 19.5993 40.5333 19.3557 40.283C19.0268 39.945 18.8229 39.4786 18.8229 38.9651V38.3525H15.5418V39.1244C15.5418 39.6379 15.3378 40.1043 15.0089 40.4423C14.8176 40.6389 14.5851 40.7916 14.3243 40.8859V41.8544C14.3243 42.1696 14.1993 42.4556 13.9969 42.6636C13.7945 42.8716 13.5163 43 13.2095 43C12.9027 43 12.6244 42.8716 12.4221 42.6636C12.2197 42.4572 12.0947 42.1696 12.0947 41.8544L12.0963 40.9509C11.7484 40.8745 11.437 40.6941 11.1934 40.4438C10.8645 40.1058 10.6606 39.6395 10.6606 39.1259V38.3264C9.71022 38.2143 8.85639 37.7691 8.2128 37.1077C7.46487 36.339 7 35.2779 7 34.1112V14.4634C7 13.0594 7.71155 11.9186 8.76308 11.1013C9.93318 10.1945 11.535 9.6924 13.0276 9.6924H14.0174V8.36477H13.687C13.4767 8.36477 13.3075 8.1909 13.3075 7.97477V6.18239C13.3075 5.58114 13.5462 5.03676 13.9305 4.64027C14.3147 4.24539 14.846 4 15.4311 4H19.9708C20.5559 4 21.0856 4.24537 21.4714 4.64027C21.8556 5.03515 22.0944 5.58114 22.0944 6.18239V7.97477C22.0944 8.1909 21.9252 8.36477 21.7149 8.36477H21.3844V9.6924L21.8243 9.69245ZM20.6257 8.36482H20.2952C20.0849 8.36482 19.9157 8.19094 19.9157 7.97482V6.2913C19.9157 6.23605 19.8999 6.1873 19.8746 6.15642C19.8699 6.14992 19.8857 6.14505 19.8778 6.14505H15.523C15.5151 6.14505 15.5309 6.14992 15.5262 6.15642C15.5009 6.18892 15.485 6.23605 15.485 6.2913V7.97644C15.485 8.19256 15.3159 8.36644 15.1056 8.36644H14.7751V9.69407H20.6239L20.6257 8.36482ZM21.0036 7.58482H21.3357V6.18243C21.3357 5.79731 21.1823 5.44632 20.934 5.1928C20.6874 4.93768 20.3458 4.78005 19.9711 4.78005H15.4313C15.0565 4.78005 14.715 4.93768 14.4683 5.1928C14.2201 5.44793 14.0667 5.7973 14.0667 6.18243V7.58482H14.7276V6.2913C14.7276 6.05567 14.8067 5.83465 14.9348 5.67054C15.0818 5.48204 15.2906 5.36342 15.5246 5.36342H19.8794C20.1134 5.36342 20.3237 5.48204 20.4691 5.67054C20.5956 5.83467 20.6763 6.05404 20.6763 6.2913V7.58644L21.0036 7.58482ZM28.2235 21.4655L31.3765 24.9366C31.5188 25.0942 31.7592 25.1023 31.911 24.9561C31.9283 24.9382 31.9457 24.9203 31.9584 24.9008L36.4459 19.3659C36.5788 19.2018 36.5582 18.9564 36.3969 18.8183C36.2356 18.6802 35.9985 18.7029 35.8641 18.8687L31.6388 24.0849L28.7784 20.9357C28.6361 20.778 28.3957 20.7699 28.2439 20.9162C28.0905 21.0624 28.0828 21.3096 28.2235 21.4655ZM27.1277 15.1199C27.1135 15.1247 27.0993 15.1296 27.085 15.1329C27.0803 15.1345 27.0756 15.1345 27.0724 15.1361C26.1157 15.4042 25.1322 15.5586 24.1297 15.6009C24.1187 15.6025 24.1076 15.6025 24.095 15.6025H24.0918C23.6317 15.6204 23.1684 15.6155 22.7003 15.5862C22.7145 20.0354 22.9581 23.0726 24.2057 25.7313C24.2737 25.8759 24.3448 26.0189 24.4175 26.1619C24.4255 26.1765 24.4334 26.1912 24.4397 26.2058C25.1971 27.6521 26.2802 29.0171 27.8204 30.4731C27.8299 30.4813 27.8378 30.4894 27.8457 30.4975C28.9636 31.5538 30.3219 32.6588 31.9697 33.8808C36.152 30.7803 38.4703 28.4257 39.7353 25.7313C40.9829 23.0728 41.2264 20.0358 41.2406 15.5863C39.5582 15.6903 37.9169 15.492 36.3531 14.9801C34.7972 14.4715 33.3235 13.6541 31.97 12.5183C30.6165 13.6541 29.1428 14.4715 27.5869 14.9801C27.4367 15.0289 27.2817 15.0744 27.1284 15.1199L27.1277 15.1199ZM26.5395 14.4731C26.1142 12.8302 25.5133 11.8341 24.8097 11.2507C24.5931 11.0703 24.3638 10.929 24.125 10.8184C24.348 11.1678 24.4745 11.592 24.4745 12.0843V14.7997C25.1765 14.7493 25.8659 14.6405 26.5395 14.4731ZM23.7154 14.8306V12.0843C23.7154 11.5919 23.5304 11.2052 23.23 10.9387C22.9043 10.6494 22.4378 10.4886 21.9144 10.4723H13.028C11.6887 10.4723 10.2593 10.9176 9.22041 11.7236C8.34917 12.3996 7.75935 13.3323 7.75935 14.4633V34.1111C7.75935 35.0633 8.13884 35.9278 8.74919 36.5567C9.35954 37.184 10.2023 37.574 11.1289 37.574H23.5351C23.5841 37.574 23.6299 37.5528 23.6632 37.5187C23.6964 37.4846 23.7169 37.4375 23.7169 37.3871L23.7153 26.4587C23.6489 26.3287 23.5857 26.1987 23.524 26.0671C22.1736 23.1908 21.9444 19.9585 21.9444 15.1649C21.9444 14.9504 22.1136 14.7766 22.3223 14.7766C22.3334 14.7766 22.3444 14.7766 22.3555 14.7782V14.7766C22.8125 14.8172 23.2663 14.8351 23.7154 14.8302L23.7154 14.8306ZM24.4744 27.7574V37.3871C24.4744 37.4033 24.4744 37.4196 24.4729 37.4374C25.0405 37.2831 25.6335 37.0035 26.1284 36.6395C26.7482 36.1829 27.1973 35.6044 27.1973 34.9967V30.939C26.0683 29.8567 25.1765 28.8185 24.4744 27.7574ZM21.7278 40.8307H21.0179V41.6952C21.0179 41.7943 21.0574 41.8853 21.1222 41.952C21.187 42.0186 21.2756 42.0592 21.3721 42.0592C21.4685 42.0592 21.5571 42.0186 21.6219 41.952C21.6867 41.8853 21.7262 41.7943 21.7262 41.6952V40.8307H21.7278ZM22.9438 38.3542H19.5805V38.9669C19.5805 39.2659 19.6991 39.5372 19.892 39.7339C20.0833 39.9305 20.3474 40.054 20.6384 40.054H21.8875C22.1769 40.054 22.4425 39.9321 22.6339 39.7339C22.8252 39.5373 22.9454 39.2659 22.9454 38.9669V38.3542H22.9438ZM13.5655 40.9916H12.8555V41.8561C12.8555 41.9552 12.8951 42.0462 12.9599 42.1128C13.0247 42.1795 13.1133 42.2201 13.2097 42.2201C13.3078 42.2201 13.3963 42.1795 13.4596 42.1128C13.5244 42.0462 13.5639 41.9552 13.5639 41.8561L13.5655 40.9916ZM14.7815 38.5135H11.4182V39.1261C11.4182 39.4235 11.5368 39.6965 11.7297 39.8931C11.921 40.0898 12.1851 40.2133 12.4761 40.2133H13.7252C14.0146 40.2133 14.2802 40.0914 14.4716 39.8931C14.6629 39.6965 14.7831 39.4251 14.7831 39.1261L14.7815 38.5135ZM14.6281 29.2965H14.7103C15.0629 29.2965 15.3839 29.4444 15.6179 29.6833C15.8362 29.9075 15.9769 30.213 15.9927 30.551C17.1675 30.3706 18.2697 29.8799 19.0698 29.082C19.8351 28.3167 20.3237 27.2604 20.3237 25.9068C20.3237 25.7686 20.3111 25.637 20.2873 25.5151C20.2731 25.4469 20.2557 25.3786 20.2352 25.312C20.0407 25.2844 19.832 25.2714 19.6153 25.2714L11.2584 25.273C10.6338 25.273 10.0788 25.3754 9.71982 25.6451C9.65973 25.689 9.60439 25.7394 9.55695 25.7963C9.55537 25.8223 9.55537 25.8596 9.55537 25.9084C9.55537 27.1694 9.98231 28.1736 10.6622 28.9244C11.3532 29.6865 12.3099 30.1935 13.3566 30.4454C13.3946 30.1513 13.5274 29.8864 13.7219 29.6849C13.9528 29.4444 14.2739 29.2965 14.6281 29.2965ZM15.9927 31.3359C15.9785 31.6755 15.8362 31.9826 15.6164 32.2085C15.3839 32.4474 15.0629 32.5953 14.7087 32.5953H14.6265C14.2739 32.5953 13.9513 32.4474 13.7189 32.2085C13.4864 31.9697 13.3425 31.6398 13.3425 31.2758V31.2384C12.095 30.967 10.9407 30.3723 10.1058 29.4525C9.77529 29.0885 9.49542 28.6757 9.28036 28.2126V32.3547C9.28036 32.9121 9.50331 33.4207 9.86067 33.7896C10.2196 34.1585 10.713 34.386 11.2569 34.386H19.6122C20.1546 34.386 20.6495 34.1569 21.0085 33.7896C21.3674 33.4207 21.5888 32.9137 21.5888 32.3547L21.5904 26.6414C21.5904 26.1685 21.4243 25.8484 21.1524 25.6453C21.1239 25.6241 21.0923 25.603 21.0607 25.5835C21.0733 25.6924 21.0796 25.7996 21.0796 25.9085C21.0796 27.4913 20.5025 28.7344 19.5948 29.6412C18.654 30.582 17.3573 31.1458 15.9927 31.3359ZM14.7103 30.0765H14.6281C14.4842 30.0765 14.353 30.1367 14.2581 30.2358C14.1632 30.3333 14.1031 30.4682 14.1031 30.616V31.2758C14.1031 31.4236 14.1616 31.5585 14.2581 31.656C14.353 31.7535 14.4842 31.8153 14.6281 31.8153H14.7103C14.8542 31.8153 14.9854 31.7551 15.0803 31.656C15.1752 31.5585 15.2353 31.4236 15.2353 31.2758V30.616C15.2353 30.4682 15.1768 30.3333 15.0803 30.2358C14.9854 30.1383 14.8542 30.0765 14.7103 30.0765ZM11.2585 24.493C10.4869 24.493 9.78008 24.6376 9.27408 25.0146C8.80606 25.364 8.52141 25.8872 8.52141 26.6412V32.3563C8.52141 33.1298 8.82975 33.8334 9.32468 34.342C9.81962 34.8523 10.5043 35.1675 11.2569 35.1675H19.6123C20.365 35.1675 21.0496 34.8506 21.5445 34.342C22.0411 33.8317 22.3478 33.1297 22.3478 32.3563L22.351 26.6412C22.351 25.8872 22.0663 25.364 21.5983 25.0146C21.0939 24.6376 20.3871 24.493 19.6154 24.493H11.2585ZM11.7234 20.3606H18.7502C19.2768 20.3606 19.7559 20.1379 20.1037 19.7804C20.4532 19.4213 20.6682 18.9289 20.6682 18.3894C20.6682 16.129 19.2768 14.6795 17.4947 14.0443C16.7848 13.7908 16.0131 13.6656 15.2415 13.6656C14.4682 13.6656 13.6966 13.7924 12.9882 14.0459C11.2014 14.6829 9.80521 16.1324 9.80521 18.3894H9.80679C9.80679 18.9305 10.0234 19.4229 10.3697 19.7804C10.7192 20.1395 11.1984 20.3606 11.7234 20.3606ZM18.7486 21.1406C19.4854 21.1406 20.1543 20.8318 20.6382 20.3329C21.122 19.8357 21.4224 19.1483 21.4224 18.391C21.4224 15.7406 19.8064 14.0488 17.7382 13.3112C16.9491 13.0301 16.0937 12.8887 15.2382 12.8904C14.3828 12.8904 13.5273 13.0317 12.7383 13.3129C10.6653 14.0522 9.04614 15.7455 9.04614 18.391H9.04456C9.04456 19.1482 9.345 19.8356 9.83043 20.3329C10.3143 20.8301 10.9832 21.1389 11.72 21.1389V21.1405L18.7486 21.1406Z" fill="#3870C1"/>
</svg>
