<svg width="48" height="48" viewBox="0 0 48 48" fill="none" xmlns="http://www.w3.org/2000/svg">
<path d="M46.2853 46.217H44.571C42.7524 46.217 41.0082 45.4946 39.7223 44.2086C38.4363 42.9227 37.7139 41.1785 37.7139 39.3599C37.7139 41.1785 36.9914 42.9227 35.7055 44.2086C34.4195 45.4946 32.6753 46.217 30.8567 46.217C29.0381 46.217 27.294 45.4946 26.008 44.2086C24.722 42.9227 23.9996 41.1785 23.9996 39.3599C23.9996 41.1785 23.2771 42.9227 21.9912 44.2086C20.7052 45.4946 18.9611 46.217 17.1424 46.217C15.3238 46.217 13.5797 45.4946 12.2937 44.2086C11.0077 42.9227 10.2853 41.1785 10.2853 39.3599C10.2853 41.1785 9.56285 42.9227 8.27689 44.2086C6.99092 45.4946 5.24678 46.217 3.42815 46.217H1.71387M34.2853 32.5028C32.5195 30.3559 30.3001 28.6269 27.7866 27.4397C25.2731 26.2526 22.5279 25.637 19.7482 25.637C16.9684 25.637 14.2232 26.2526 11.7097 27.4397C9.19619 28.6269 6.97681 30.3559 5.21101 32.5028" stroke="#3870C1" stroke-width="2" stroke-linecap="round" stroke-linejoin="round"/>
<path d="M22.2852 25.8171C22.4909 18.0686 24.8566 11.0057 29.9995 8.46857M19.748 1.95428C21.9706 1.51665 24.2763 1.94832 26.1899 3.16031C28.1036 4.37231 29.4794 6.27226 30.0338 8.46857" stroke="#3870C1" stroke-width="2" stroke-linecap="round" stroke-linejoin="round"/>
<path d="M42.5486 9.73714C40.9706 8.03322 38.8247 6.96407 36.5141 6.73048C34.2035 6.4969 31.8871 7.11495 30 8.46857" stroke="#3870C1" stroke-width="2" stroke-linecap="round" stroke-linejoin="round"/>
<path d="M17.417 12.1371C18.7605 10.1578 20.7519 8.70863 23.0484 8.03906C25.345 7.36949 27.8031 7.52134 29.9998 8.46849C32.2033 9.00737 34.111 10.3815 35.3201 12.3008C36.5292 14.22 36.9451 16.5341 36.4798 18.7542" stroke="#3870C1" stroke-width="2" stroke-linecap="round" stroke-linejoin="round"/>
</svg>
