<svg width="48" height="48" viewBox="0 0 48 48" fill="none" xmlns="http://www.w3.org/2000/svg">
<path d="M12 36.77V17.23C12 16.342 12.3167 15.582 12.95 14.95C13.582 14.3167 14.342 14 15.23 14H19.808V9.15401C19.808 8.74068 19.9613 8.38068 20.268 8.07401C20.5747 7.76735 20.9347 7.61401 21.348 7.61401H26.654C27.0673 7.61401 27.4273 7.76735 27.734 8.07401C28.0407 8.38068 28.194 8.74068 28.194 9.15401V14H32.77C33.658 14 34.418 14.3167 35.05 14.95C35.6833 15.582 36 16.342 36 17.23V36.77C36 37.658 35.6833 38.418 35.05 39.05C34.418 39.6833 33.658 40 32.77 40V41C32.77 41.284 32.6727 41.5214 32.478 41.712C32.2847 41.904 32.0447 42 31.758 42C31.4887 42 31.278 41.8933 31.126 41.68C30.974 41.4667 30.8553 41.24 30.77 41V40H17.23V41C17.23 41.284 17.1333 41.5214 16.94 41.712C16.7467 41.9027 16.5067 41.9987 16.22 42C15.9507 42 15.7393 41.8933 15.586 41.68C15.4327 41.4667 15.314 41.24 15.23 41V40C14.342 40 13.582 39.6833 12.95 39.05C12.3167 38.418 12 37.658 12 36.77ZM21.808 14H26.192V9.61601H21.808V14ZM24 24.77C25.7667 24.77 27.492 24.5447 29.176 24.094C30.86 23.6433 32.468 22.9687 34 22.07V17.23C34 16.8713 33.8847 16.5767 33.654 16.346C33.4233 16.1153 33.1287 16 32.77 16H15.23C14.8713 16 14.5767 16.1153 14.346 16.346C14.1153 16.5767 14 16.8713 14 17.23V22.07C15.5333 22.97 17.142 23.6447 18.826 24.094C20.51 24.5433 22.2347 24.7687 24 24.77ZM23 27.77V26.746C21.42 26.6313 19.88 26.3813 18.38 25.996C16.88 25.612 15.42 25.06 14 24.34V36.772C14 37.1307 14.1153 37.4253 14.346 37.656C14.5767 37.8867 14.8713 38.002 15.23 38.002H32.77C33.1287 38.002 33.4233 37.8867 33.654 37.656C33.8847 37.4253 34 37.1307 34 36.772V24.34C32.58 25.06 31.12 25.6133 29.62 26C28.12 26.384 26.58 26.6333 25 26.748V27.772C25 28.0547 24.904 28.292 24.712 28.484C24.52 28.676 24.282 28.772 23.998 28.772C23.714 28.772 23.4767 28.676 23.286 28.484C23.0953 28.292 23 28.0527 23 27.77Z" fill="#3870C1"/>
</svg>
