<svg width="48" height="48" viewBox="0 0 48 48" fill="none" xmlns="http://www.w3.org/2000/svg">
<path d="M40.8935 13.2796C34.9853 3.96804 22.6024 1.19904 13.2917 7.10682C8.78139 9.96861 5.65508 14.4152 4.4894 19.6287C3.32327 24.8421 4.25719 30.1973 7.11898 34.7077C8.85433 37.4416 11.1423 39.6483 13.9196 41.2673C14.1398 41.3952 14.4223 41.3209 14.5507 41.1011C14.679 40.8804 14.6047 40.5979 14.3845 40.4696C11.7364 38.9263 9.5542 36.8211 7.89871 34.2128C7.25471 33.1976 6.71642 32.1363 6.2797 31.044H22.0248V30.1207H17.4743C17.936 29.7454 18.237 29.1798 18.237 28.5395C18.237 27.4108 17.3187 26.4921 16.1895 26.4921C15.0603 26.4921 14.1421 27.4103 14.1421 28.5395C14.1421 29.1798 14.4436 29.7449 14.9048 30.1207H5.93669C5.81066 29.7504 5.69478 29.3779 5.59183 29.0012H14.0373V28.5395C14.0373 27.3609 14.9962 26.4025 16.1743 26.4025C17.3524 26.4025 18.3113 27.3609 18.3113 28.5395V29.0012H22.4865V18.4898C22.4865 17.5656 22.1929 16.8098 21.614 16.2443C20.5342 15.189 18.8505 15.2158 18.7951 15.2167H7.06497C8.59673 12.2478 10.8907 9.72347 13.7866 7.88609C22.6684 2.25161 34.4793 4.89319 40.1138 13.774C44.1629 20.1564 43.9386 28.0506 40.196 34.0789L38.4528 32.3574H39.1323C39.8857 32.3574 40.4988 31.6945 40.4988 30.8806V19.7063C40.4988 18.8961 39.8922 18.2373 39.1439 18.2303V17.4709H38.2205V18.229H35.9109C35.7826 17.0494 34.7808 16.128 33.5675 16.128C32.3543 16.128 31.3521 17.0494 31.2237 18.229H29.39V17.4709H28.4667V18.229H28.0028C27.2489 18.229 26.6358 18.8919 26.6358 19.7063V30.8806C26.6358 31.6949 27.2489 32.3574 28.0028 32.3574H37.138L38.0867 33.2941H29.2829V34.2174H39.0215L39.6794 34.8669C39.4555 35.1906 39.2168 35.5059 38.9721 35.8166H31.8544V36.7399H38.1929C37.0549 38.0071 35.7327 39.1442 34.2254 40.1002C29.5987 43.0359 23.9259 43.8401 18.6608 42.3046C18.4175 42.234 18.1603 42.3734 18.0883 42.6186C18.0168 42.8632 18.1576 43.1199 18.4022 43.191C20.2405 43.727 22.1259 43.9911 24.0035 43.9911C27.7618 43.9906 31.485 42.9325 34.7203 40.88C44.0318 34.9727 46.8008 22.5911 40.8935 13.2796ZM16.1895 27.4154C16.8091 27.4154 17.3137 27.9195 17.3137 28.5395C17.3137 29.1595 16.8095 29.6637 16.1895 29.6637C15.5695 29.6637 15.0654 29.1595 15.0654 28.5395C15.0654 27.9195 15.57 27.4154 16.1895 27.4154ZM21.5632 28.0779H19.2C18.977 26.6084 17.7051 25.4792 16.1743 25.4792C14.6435 25.4792 13.3721 26.6084 13.1486 28.0779H5.3647C4.91228 26.0189 4.8061 23.8898 5.06047 21.7629H21.5632V28.0779ZM5.19389 20.8396C5.23128 20.6199 5.2756 20.401 5.32038 20.1818H21.5632V20.8396H5.19389ZM18.8043 16.14C18.8103 16.1372 20.1736 16.1234 20.9723 16.9082C21.3698 17.2987 21.5632 17.8162 21.5632 18.4898V19.2585H5.53274C5.6777 18.6906 5.84759 18.1334 6.04102 17.5873H8.36729V18.7312H9.2906V16.664H6.39557C6.46805 16.4885 6.54053 16.3131 6.61809 16.14H18.8043ZM28.0023 19.1523H32.196L32.141 18.6412C32.1355 18.5904 32.1323 18.5383 32.1323 18.4861C32.1323 17.6953 32.7758 17.0517 33.5666 17.0517C34.3574 17.0517 35.0005 17.6953 35.0005 18.4861C35.0005 18.5397 34.9977 18.5923 34.9922 18.6445L34.9414 19.1523H39.1309C39.3751 19.1523 39.5741 19.4011 39.5741 19.7063V26.8291H27.5587V19.7063C27.5587 19.4011 27.7576 19.1523 28.0023 19.1523ZM27.5587 30.8806V27.7529H39.5746V30.8806C39.5746 31.1857 39.3756 31.4341 39.1314 31.4341H28.0023C27.7576 31.4341 27.5587 31.1857 27.5587 30.8806Z" fill="#3870C1"/>
<path d="M17.0711 41.7653C16.7188 41.6277 16.3657 41.4781 16.0213 41.3193C15.79 41.2127 15.5153 41.3138 15.4087 41.5455C15.302 41.7768 15.4031 42.0515 15.6349 42.1577C15.9959 42.3239 16.3661 42.4813 16.7359 42.6253C16.7909 42.647 16.8476 42.6567 16.903 42.6567C17.0877 42.6567 17.2622 42.5455 17.3333 42.3627C17.4266 42.1254 17.3088 41.8576 17.0711 41.7653Z" fill="#3870C1"/>
<path d="M29.6076 26.3984H37.3953C38.2101 26.3984 38.873 25.735 38.873 24.9207V22.0769C38.873 21.2621 38.2096 20.5996 37.3953 20.5996H29.6076C28.7928 20.5996 28.1299 21.2625 28.1299 22.0769V24.9207C28.1299 25.735 28.7928 26.3984 29.6076 26.3984ZM29.0532 22.0769C29.0532 21.7713 29.302 21.5229 29.6076 21.5229H37.3953C37.7009 21.5229 37.9497 21.7717 37.9497 22.0769V24.9207C37.9497 25.2263 37.7009 25.4751 37.3953 25.4751H29.6076C29.302 25.4751 29.0532 25.2263 29.0532 24.9207V22.0769Z" fill="#3870C1"/>
<path d="M33.9466 22.4092L33.1875 21.8835L31.7341 23.9826L32.4933 24.5082L33.9466 22.4092Z" fill="#3870C1"/>
<path d="M34.1682 25.237L35.6221 23.1392L34.8632 22.6132L33.4093 24.7111L34.1682 25.237Z" fill="#3870C1"/>
<path d="M29.6745 28.1162C28.8223 28.1162 28.1289 28.8096 28.1289 29.6618C28.1289 30.514 28.8223 31.2074 29.6745 31.2074C30.5267 31.2074 31.2197 30.514 31.2197 29.6618C31.2197 28.8096 30.5267 28.1162 29.6745 28.1162ZM29.6745 30.2837C29.3315 30.2837 29.0522 30.0048 29.0522 29.6614C29.0522 29.3179 29.3311 29.0391 29.6745 29.0391C30.0171 29.0391 30.2964 29.3179 30.2964 29.6614C30.2964 30.0048 30.0171 30.2837 29.6745 30.2837Z" fill="#3870C1"/>
<path d="M37.3274 28.1162C36.4752 28.1162 35.7822 28.8096 35.7822 29.6618C35.7822 30.514 36.4752 31.2074 37.3274 31.2074C38.1796 31.2074 38.873 30.514 38.873 29.6618C38.873 28.8096 38.1796 28.1162 37.3274 28.1162ZM37.3274 30.2837C36.9848 30.2837 36.7055 30.0048 36.7055 29.6614C36.7055 29.3179 36.9844 29.0391 37.3274 29.0391C37.6704 29.0391 37.9497 29.3179 37.9497 29.6614C37.9497 30.0048 37.6708 30.2837 37.3274 30.2837Z" fill="#3870C1"/>
<path d="M12.9326 18.7313H13.8559V16.6641H10.0029V17.5874H12.9326V18.7313Z" fill="#3870C1"/>
<path d="M17.4233 18.7313H18.3466V16.6641H14.4941V17.5874H17.4233V18.7313Z" fill="#3870C1"/>
<path d="M8.36617 25.0103H9.28948V22.2043H5.43652V23.1277H8.36617V25.0103Z" fill="#3870C1"/>
<path d="M12.9326 25.0103H13.8559V22.2043H10.0029V23.1277H12.9326V25.0103Z" fill="#3870C1"/>
<path d="M17.4233 25.0103H18.3466V22.2043H14.4941V23.1277H17.4233V25.0103Z" fill="#3870C1"/>
<path d="M20.3031 18.7312H21.2264C21.2264 17.2622 19.6835 16.7378 18.8678 16.6658L18.7852 17.5854C18.847 17.5909 20.3031 17.7391 20.3031 18.7312Z" fill="#3870C1"/>
<path d="M19.8058 23.5116C20.1354 23.8287 20.303 24.3329 20.303 25.0106H21.2263C21.2263 24.072 20.9636 23.3435 20.4456 22.8459C19.7471 22.1751 18.8478 22.2037 18.8086 22.2051L18.8455 23.1275C18.8529 23.127 19.394 23.1164 19.8058 23.5116Z" fill="#3870C1"/>
<path d="M12.7916 26.9058H5.43652V27.8291H12.7916V26.9058Z" fill="#3870C1"/>
<path d="M20.7649 26.9058H19.7959V27.8291H20.7649V26.9058Z" fill="#3870C1"/>
<path d="M26.2368 15.7321L29.4411 13.2568H35.9223L35.6882 12.6331C34.9533 10.6734 32.8251 10.1798 32.735 10.1595L29.4342 10.1568L25.6357 7.67261H21.8534L24.374 10.1521L20.7136 10.1489L19.3813 7.67307H16.2559L18.1842 13.2572H24.5767L22.2537 15.7326L26.2368 15.7321ZM24.1086 8.59591H25.3606L27.7446 10.1549L25.6916 10.1531L24.1086 8.59591ZM17.5517 8.59591H18.8291L20.1614 11.0718H32.5762C32.8015 11.1336 33.8444 11.4586 34.4852 12.3335H18.8425L17.5517 8.59591ZM27.9311 13.2572L25.922 14.8093H24.3865L25.8435 13.2572H27.9311Z" fill="#3870C1"/>
<path d="M17.9011 38.8723C18.7441 38.8723 19.4297 38.1872 19.4297 37.3442C19.4297 36.5013 18.7441 35.8162 17.9011 35.8162C17.0586 35.8162 16.373 36.5013 16.373 37.3442C16.373 38.1872 17.0586 38.8723 17.9011 38.8723ZM17.9011 36.7399C18.2349 36.7399 18.5063 37.0114 18.5063 37.3447C18.5063 37.678 18.2349 37.9495 17.9011 37.9495C17.5678 37.9495 17.2964 37.678 17.2964 37.3447C17.2964 37.0114 17.5678 36.7399 17.9011 36.7399Z" fill="#3870C1"/>
<path d="M27.0197 38.8723C27.8623 38.8723 28.5478 38.1872 28.5478 37.3442C28.5478 36.5013 27.8627 35.8162 27.0197 35.8162C26.1768 35.8162 25.4912 36.5013 25.4912 37.3442C25.4912 38.1872 26.1772 38.8723 27.0197 38.8723ZM27.0197 36.7399C27.3531 36.7399 27.6245 37.0114 27.6245 37.3447C27.6245 37.678 27.3531 37.9495 27.0197 37.9495C26.686 37.9495 26.4145 37.678 26.4145 37.3447C26.4145 37.0114 26.6864 36.7399 27.0197 36.7399Z" fill="#3870C1"/>
<path d="M25.4668 36.3813H19.6338V38.4588H25.4668V36.3813ZM24.5435 37.5355H20.5571V37.3047H24.5435V37.5355Z" fill="#3870C1"/>
<path d="M19.2592 40.4077V39.8855H25.5626V40.4077C25.5626 41.156 26.1715 41.7649 26.9203 41.7649C27.6687 41.7649 28.2776 41.156 28.2776 40.4077V39.8726C29.079 39.8057 29.7129 39.1478 29.7129 38.339V36.3507C29.7129 35.4975 29.0107 34.8037 28.1465 34.8037H28.0459L26.202 31.7849H18.6138L16.6841 34.8097C15.8485 34.842 15.1777 35.5178 15.1777 36.3507V38.339C15.1777 39.1243 15.7751 39.7674 16.5438 39.8662V40.4081C16.5438 41.1565 17.1527 41.7654 17.901 41.7654C18.6503 41.7649 19.2592 41.156 19.2592 40.4077ZM26.9208 40.8416C26.6807 40.8416 26.4864 40.6468 26.4864 40.4077V39.8855H27.3552V40.4077C27.3548 40.6468 27.1599 40.8416 26.9208 40.8416ZM19.1203 32.7082H25.6854L26.9651 34.8037H22.2299C22.0651 33.9805 21.3376 33.3578 20.4664 33.3578C19.5953 33.3578 18.8677 33.9805 18.7029 34.8037H17.7833L19.1203 32.7082ZM21.2665 34.8037H19.6664C19.8026 34.4967 20.1091 34.2811 20.4664 34.2811C20.8238 34.2811 21.1303 34.4967 21.2665 34.8037ZM16.101 38.3385V36.3502C16.101 36.0063 16.3896 35.7265 16.7446 35.7265H28.1474C28.502 35.7265 28.7905 36.0058 28.7905 36.3502V38.3385C28.7905 38.6825 28.502 38.9622 28.1474 38.9622H16.745C16.39 38.9622 16.101 38.6825 16.101 38.3385ZM17.9015 40.8416C17.6624 40.8416 17.4675 40.6468 17.4675 40.4077V39.8855H18.3359V40.4077C18.3359 40.6468 18.1411 40.8416 17.9015 40.8416Z" fill="#3870C1"/>
</svg>
