<svg width="48" height="48" viewBox="0 0 48 48" fill="none" xmlns="http://www.w3.org/2000/svg">
<path d="M18.3518 4.00005C17.7519 4.00556 17.1782 4.24928 16.7553 4.67838L6.66975 14.848C6.25583 15.2461 6.01524 15.7934 6.0007 16.37C5.98616 16.9466 6.19884 17.5055 6.59217 17.9243L18.5681 30V28.2927L7.43875 17.0706C7.26947 16.8785 7.18259 16.6266 7.19713 16.37C7.21167 16.1134 7.32645 15.8731 7.51633 15.7017L10.0024 13.1949L18.5681 21.832V20.1249L10.8489 12.3413L14.2694 8.89232L18.5681 13.2269V12.4506C18.5691 12.1707 18.6023 11.8919 18.6672 11.6197L15.1159 8.03876L17.6019 5.53202C17.7995 5.32811 18.069 5.21135 18.3517 5.20727C18.4642 5.20572 18.5758 5.22672 18.6802 5.26904C18.7845 5.31136 18.8795 5.37417 18.9596 5.45381L22.3068 8.82894H24L19.8062 4.60018C19.6151 4.40815 19.3882 4.25624 19.1386 4.15323C18.889 4.05022 18.6215 3.99815 18.3518 4.00005Z" fill="#3870C1"/>
<path d="M20 12.4444V40.5556C20.0008 41.2037 20.2585 41.825 20.7168 42.2833C21.1751 42.7415 21.7964 42.9993 22.4444 43H39.5556C40.2036 42.9993 40.8249 42.7415 41.2832 42.2833C41.7415 41.825 41.9992 41.2037 42 40.5556V12.4444C41.9992 11.7963 41.7415 11.175 41.2832 10.7167C40.8249 10.2585 40.2036 10.0007 39.5556 10H22.4444C21.7964 10.0007 21.1751 10.2585 20.7168 10.7167C20.2585 11.175 20.0008 11.7963 20 12.4444ZM40.7778 12.4444V40.5556C40.7778 40.7161 40.7462 40.875 40.6847 41.0233C40.6233 41.1716 40.5333 41.3063 40.4198 41.4198C40.3063 41.5333 40.1716 41.6233 40.0233 41.6848C39.875 41.7462 39.7161 41.7778 39.5556 41.7778H22.4444C22.2839 41.7778 22.125 41.7462 21.9767 41.6848C21.8284 41.6233 21.6937 41.5333 21.5802 41.4198C21.4667 41.3063 21.3767 41.1716 21.3153 41.0233C21.2538 40.875 21.2222 40.7161 21.2222 40.5556V12.4444C21.2222 12.2839 21.2538 12.125 21.3153 11.9767C21.3767 11.8284 21.4667 11.6937 21.5802 11.5802C21.6937 11.4667 21.8284 11.3767 21.9767 11.3152C22.125 11.2538 22.2839 11.2222 22.4444 11.2222H39.5556C39.7161 11.2222 39.875 11.2538 40.0233 11.3152C40.1716 11.3767 40.3063 11.4667 40.4198 11.5802C40.5333 11.6937 40.6233 11.8284 40.6847 11.9767C40.7462 12.125 40.7778 12.2839 40.7778 12.4444Z" fill="#3870C1"/>
<path d="M31.0005 29C32.3849 28.9999 33.7383 28.5893 34.8893 27.8201C36.0404 27.0508 36.9376 25.9575 37.4673 24.6785C37.997 23.3994 38.1356 21.9919 37.8654 20.6341C37.5953 19.2762 36.9286 18.029 35.9496 17.0501C34.9706 16.0712 33.7233 15.4045 32.3655 15.1345C31.0076 14.8644 29.6002 15.0031 28.3211 15.5329C27.042 16.0627 25.9488 16.9599 25.1797 18.1111C24.4105 19.2622 24 20.6156 24 22C24.0022 23.8559 24.7404 25.6352 26.0528 26.9475C27.3652 28.2598 29.1445 28.998 31.0005 29ZM33.3763 16.6757C34.4057 17.1339 35.2801 17.8807 35.8939 18.8257C36.5076 19.7706 36.8342 20.8732 36.8342 22C36.8342 23.1268 36.5076 24.2294 35.8939 25.1743C35.2801 26.1193 34.4057 26.8661 33.3763 27.3243C34.1389 25.9545 34.5007 23.9356 34.5007 22C34.5007 20.0645 34.1389 18.0455 33.3763 16.6757ZM31.0005 16.1667C32.2892 16.1667 33.334 18.7783 33.334 22C33.334 25.2217 32.2892 27.8333 31.0005 27.8333C29.7117 27.8333 28.667 25.2217 28.667 22C28.667 18.7783 29.7117 16.1667 31.0005 16.1667ZM28.6247 16.6757C27.8621 18.0455 27.5003 20.0645 27.5003 22C27.5003 23.9356 27.8621 25.9545 28.6247 27.3243C27.5953 26.8661 26.7208 26.1193 26.1071 25.1743C25.4934 24.2294 25.1668 23.1268 25.1668 22C25.1668 20.8732 25.4934 19.7706 26.1071 18.8257C26.7208 17.8807 27.5953 17.1339 28.6247 16.6757Z" fill="#3870C1"/>
<path d="M26.5555 33C26.4082 33 26.2669 33.0527 26.1627 33.1464C26.0585 33.2402 26 33.3674 26 33.5C26 33.6326 26.0585 33.7598 26.1627 33.8536C26.2669 33.9473 26.4082 34 26.5555 34H35.4445C35.5918 34 35.7331 33.9473 35.8373 33.8536C35.9415 33.7598 36 33.6326 36 33.5C36 33.3674 35.9415 33.2402 35.8373 33.1464C35.7331 33.0527 35.5918 33 35.4445 33H26.5555Z" fill="#3870C1"/>
<path d="M24.5714 37H37.4286C37.5801 37 37.7255 36.9473 37.8326 36.8536C37.9398 36.7598 38 36.6326 38 36.5C38 36.3674 37.9398 36.2402 37.8326 36.1464C37.7255 36.0527 37.5801 36 37.4286 36H24.5714C24.4199 36 24.2745 36.0527 24.1674 36.1464C24.0602 36.2402 24 36.3674 24 36.5C24 36.6326 24.0602 36.7598 24.1674 36.8536C24.2745 36.9473 24.4199 37 24.5714 37Z" fill="#3870C1"/>
</svg>
