<svg width="48" height="48" viewBox="0 0 48 48" fill="none" xmlns="http://www.w3.org/2000/svg">
<path d="M8.125 41H18.2874C19.1113 40.9798 19.1086 39.7582 18.2874 39.7408H8.125C7.09106 39.7408 6.25 38.8935 6.25 37.852V10.1496C6.25 9.10804 7.09106 8.26079 8.125 8.26079H29.375C30.4089 8.26079 31.25 9.10804 31.25 10.1496V18.3344C31.2605 19.1609 32.4883 19.1618 32.5 18.3344V10.1496C32.4988 9.46704 32.2582 8.81411 31.8738 8.26079C32.9089 8.26079 33.75 9.10804 33.75 10.1496V18.3344C33.7586 19.1583 34.9888 19.1636 35 18.3344V10.1496C35 8.41388 33.598 7.00159 31.875 7.00159C31.0834 7.01035 9.5414 6.99529 8.125 7.00159C6.40198 7.00159 5 8.41388 5 10.1496V37.852C5 39.5877 6.40198 41 8.125 41Z" fill="#3870C1"/>
<path d="M26.734 17.9243C26.7964 18.7555 28.0467 18.6743 27.9986 17.8352C26.6987 5.64837 9.4326 6.25084 9 18.5178C9 23.2502 12.506 27.3232 17.1548 27.992C17.5582 28.0608 17.9579 27.6734 17.8616 27.2591C17.901 26.9844 17.7683 26.7063 17.5041 26.587C16.2673 26.0292 15.1894 24.4361 14.5928 22.3459H18.2366C18.7625 22.6372 19.4533 21.948 19.1471 21.4201V15.9657H22.7239C22.8379 16.5996 22.9152 17.2617 22.9406 17.948C22.9536 18.3003 23.2502 18.5757 23.5977 18.562C23.9476 18.5489 24.2207 18.2527 24.2077 17.9006C24.1831 17.2316 24.1176 16.5858 24.019 15.9657H26.3464C26.5482 16.5903 26.6864 17.2437 26.734 17.9243ZM14.8813 11.083C14.1821 12.0382 13.6264 13.2709 13.2664 14.6897H11.2064C12.0179 13.1287 13.3087 11.8637 14.8813 11.083ZM10.2684 18.5178C10.2684 17.6271 10.4124 16.7705 10.6719 15.9657H13.0091C12.7423 17.5851 12.7355 19.4309 13.0099 21.0698H10.6809C10.4178 20.2608 10.2684 19.4042 10.2684 18.5178ZM14.9265 25.9769C13.3321 25.1946 12.0331 23.9123 11.216 22.3458H13.2852C13.6517 23.7796 14.2173 25.0188 14.9265 25.9769ZM17.8788 21.0698H14.3005C13.9993 19.4373 14.001 17.5815 14.3006 15.9657H17.8788V21.0698ZM17.8788 14.6897H14.5955C15.253 12.3991 16.4701 10.7193 17.8788 10.3227V14.6897ZM19.1471 14.6897V10.3228C20.5475 10.7202 21.7686 12.3975 22.4284 14.6897H19.1471ZM23.7534 14.6897C23.3921 13.2652 22.8359 12.0329 22.1357 11.079C23.7064 11.8584 24.9991 13.1262 25.814 14.6897H23.7534Z" fill="#3870C1"/>
<path d="M9 27C8.44873 27 8 27.5665 8 28.2632V37.7368C8 38.4335 8.44873 39 9 39H10C10.5513 39 11 38.4335 11 37.7368V28.2632C11 27.5665 10.5513 27 10 27H9ZM10 37.7368L9 37.7378V28.2632H10V37.7368Z" fill="#3870C1"/>
<path d="M16.4344 34C17.1878 33.9892 17.1893 33.011 16.4344 33H13.5656C12.8122 33.0108 12.8107 33.989 13.5656 34H16.4344Z" fill="#3870C1"/>
<path d="M13.5656 36H16.4344C17.1878 35.9892 17.1893 35.011 16.4344 35H13.5656C12.8122 35.0108 12.8107 35.989 13.5656 36Z" fill="#3870C1"/>
<path d="M13.5494 38H17.4506C18.1821 37.9893 18.1841 37.011 17.4506 37H13.5494C12.8179 37.0107 12.8159 37.9889 13.5494 38Z" fill="#3870C1"/>
<path d="M40.4157 22.5273C40.1445 21.0922 38.8605 20 37.3158 20H24.6842C23.1395 20 21.8555 21.0922 21.5843 22.5273C20.1168 22.7925 19 24.0481 19 25.5588V37.9118C19 39.6145 20.4167 41 22.1579 41H39.8421C41.5833 41 43 39.6145 43 37.9118V25.5588C43 24.0481 41.8832 22.7925 40.4157 22.5273ZM24.6842 21.2353H37.3158C38.1392 21.2353 38.8417 21.7516 39.1026 22.4706H22.8974C23.1583 21.7516 23.8608 21.2353 24.6842 21.2353ZM41.7368 37.9118C41.7368 38.9335 40.8869 39.7647 39.8421 39.7647H22.1579C21.1131 39.7647 20.2632 38.9335 20.2632 37.9118V30.4842C20.6321 30.7574 21.0568 30.9616 21.5263 31.0552V36.0588C21.5263 37.4211 22.6593 38.5294 24.0526 38.5294H27.8421C29.2354 38.5294 30.3684 37.4211 30.3684 36.0588V31.1176H31.6316V36.0588C31.6316 37.4211 32.7646 38.5294 34.1579 38.5294H37.9474C39.3407 38.5294 40.4737 37.4211 40.4737 36.0588V31.0552C40.9432 30.9616 41.3679 30.7574 41.7368 30.4842V37.9118ZM22.7895 36.0588V31.1176H29.1053V36.0588C29.1053 36.7401 28.5384 37.2941 27.8421 37.2941H24.0526C23.3563 37.2941 22.7895 36.7401 22.7895 36.0588ZM32.8947 36.0588V31.1176H39.2105V36.0588C39.2105 36.7401 38.6437 37.2941 37.9474 37.2941H34.1579C33.4616 37.2941 32.8947 36.7401 32.8947 36.0588ZM41.7368 28.0294C41.7368 29.0512 40.8869 29.8824 39.8421 29.8824H32.2632C30.5747 29.8825 23.9643 29.8822 22.1579 29.8824C21.1131 29.8824 20.2632 29.0512 20.2632 28.0294V25.5588C20.2632 24.537 21.1131 23.7059 22.1579 23.7059H39.8421C40.8869 23.7059 41.7368 24.537 41.7368 25.5588V28.0294Z" fill="#3870C1"/>
</svg>
